<svg width="24" height="25" viewBox="0 0 24 25" fill="none" xmlns="http://www.w3.org/2000/svg">
    <g clip-path="url(#clip0_60_100)">
        <path d="M19.5609 17.3797L16.2047 17.1547C15.9609 17.1406 15.7219 17.2062 15.525 17.3516C15.3281 17.4969 15.1875 17.6984 15.1312 17.9375L14.3063 21.2C13.5703 21.3969 12.7969 21.5 12 21.5C11.2031 21.5 10.4297 21.3969 9.69375 21.2L8.86875 17.9375C8.80781 17.7031 8.66719 17.4969 8.475 17.3516C8.28281 17.2062 8.03906 17.1406 7.79531 17.1547L4.43906 17.3797C3.61406 16.1047 3.10313 14.6047 3.01406 12.9922L5.85938 11.2016C6.06563 11.0703 6.21562 10.8734 6.29062 10.6437C6.36562 10.4141 6.35625 10.1656 6.26719 9.94062L5.01562 6.81875C6 5.61875 7.27969 4.67188 8.75156 4.10469L11.3391 6.26094C11.5266 6.41563 11.7609 6.5 12 6.5C12.2391 6.5 12.4781 6.41563 12.6609 6.26094L15.2484 4.10469C16.7156 4.67188 18 5.61875 18.9797 6.81875L17.7281 9.94062C17.6391 10.1656 17.6297 10.4141 17.7047 10.6437C17.7797 10.8734 17.9344 11.0703 18.1359 11.2016L20.9813 12.9922C20.8922 14.6047 20.3813 16.1047 19.5563 17.3797H19.5609ZM12 24.5C15.1826 24.5 18.2348 23.2357 20.4853 20.9853C22.7357 18.7348 24 15.6826 24 12.5C24 9.3174 22.7357 6.26516 20.4853 4.01472C18.2348 1.76428 15.1826 0.5 12 0.5C8.8174 0.5 5.76516 1.76428 3.51472 4.01472C1.26428 6.26516 0 9.3174 0 12.5C0 15.6826 1.26428 18.7348 3.51472 20.9853C5.76516 23.2357 8.8174 24.5 12 24.5ZM12.6609 9.23281C12.2672 8.94688 11.7328 8.94688 11.3391 9.23281L9.09375 10.8594C8.7 11.1453 8.53594 11.6516 8.68594 12.1156L9.54375 14.7547C9.69375 15.2188 10.125 15.5328 10.6125 15.5328H13.3875C13.875 15.5328 14.3062 15.2188 14.4562 14.7547L15.3141 12.1156C15.4641 11.6516 15.3 11.1453 14.9062 10.8594L12.6609 9.22812V9.23281Z"
              fill="black"/>
    </g>
    <defs>
        <clipPath id="clip0_60_100">
            <path d="M0 0.5H24V24.5H0V0.5Z" fill="white"/>
        </clipPath>
    </defs>
</svg>
